PathFileType	4	(X/Y/Z)	C:/Users/opensim2020/Desktop/walking_exp_matlab/subject02_walking04_straight_03.trc	
DataRate	CameraRate	NumFrames	NumMarkers	Units	OrigDataRate	OrigDataStartFrame	OrigNumFrames	
100.00	100.00	7	42	mm	100.00	2233	222	
Frame#	Time	LFHD			RFHD			LBHD			RBHD			C7			T10			CLAV			STRN			RBAK			LSHO			LUPA			LELB			LFRM			LWRA			LWRB			LFIN			RSHO			RUPA			RELB			RFRM			RWRA			RWRB			RFIN			LASI			RASI			LPSI			RPSI			LTHI			LKNE			LTIB			LANK			LHEE			LTOE			RTHI			RKNE			RTIB			RANK			RHEE			RTOE			*39			*40			*41			
		X1	Y1	Z1	X2	Y2	Z2	X3	Y3	Z3	X4	Y4	Z4	X5	Y5	Z5	X6	Y6	Z6	X7	Y7	Z7	X8	Y8	Z8	X9	Y9	Z9	X10	Y10	Z10	X11	Y11	Z11	X12	Y12	Z12	X13	Y13	Z13	X14	Y14	Z14	X15	Y15	Z15	X16	Y16	Z16	X17	Y17	Z17	X18	Y18	Z18	X19	Y19	Z19	X20	Y20	Z20	X21	Y21	Z21	X22	Y22	Z22	X23	Y23	Z23	X24	Y24	Z24	X25	Y25	Z25	X26	Y26	Z26	X27	Y27	Z27	X28	Y28	Z28	X29	Y29	Z29	X30	Y30	Z30	X31	Y31	Z31	X32	Y32	Z32	X33	Y33	Z33	X34	Y34	Z34	X35	Y35	Z35	X36	Y36	Z36	X37	Y37	Z37	X38	Y38	Z38	X39	Y39	Z39	X40	Y40	Z40	X41	Y41	Z41	X42	Y42	Z42	

28	0.270	-1090.58691	-713.42029	1731.58801	-945.60547	-728.20142	1718.75122	-1109.20142	-837.93506	1652.22339	-969.44653	-866.94556	1637.47681	-1030.58191	-904.09784	1520.79529	-1024.83276	-962.48529	1243.30945	-1037.99829	-767.00220	1445.96436	-1024.69775	-718.38330	1275.71106	-963.95892	-966.07434	1347.05676	-1210.35315	-827.81183	1485.88367	-1295.55664	-834.40326	1283.46143	-1310.15845	-835.22424	1144.02747	-1328.50317	-820.73090	1014.58905	-1301.93823	-760.04718	890.76978	-1336.39954	-805.58887	892.72357	-1342.74280	-783.91571	830.03088	-842.21313	-826.56445	1487.26770	-755.34680	-854.68774	1297.44836	-739.40399	-835.77490	1150.92737	-723.04114	-798.68469	1035.16736	-748.47052	-742.27966	912.83655	-713.24811	-786.99573	905.05597	-714.51178	-744.31598	846.07648	-1155.54321	-710.07227	993.05914	-898.49310	-728.48065	964.98804	-1087.69946	-929.13409	1025.93945	-973.87842	-940.93781	1017.57141	-1218.20911	-748.85510	683.28699	-1190.84424	-767.53375	478.43436	-1193.96008	-813.05139	287.76157	-1156.70300	-799.76904	65.34550	-1106.85156	-836.32068	36.84860	-1163.22241	-641.62714	31.36389	-821.03619	-796.67291	661.04041	-823.47064	-778.59857	464.36160	-829.08276	-922.70050	352.46121	-870.81561	-1058.60876	219.64288	-937.59717	-1105.61169	196.20491	-831.32971	-1005.46057	71.40452	-1014.14661	-824.68250	1797.15015	-3357.36353	2845.69189	1033.94617			 
29	0.280	-1092.58545	-705.20514	1732.45471	-947.78473	-720.25970	1719.87439	-1111.21204	-829.98071	1652.81177	-971.85352	-858.78754	1638.59314	-1032.92883	-895.84930	1521.68176	-1027.50232	-954.13159	1244.15515	-1039.97729	-758.75885	1446.76013	-1026.61572	-710.41638	1276.30664	-966.71008	-958.11243	1348.04126	-1212.48047	-818.66919	1486.95203	-1297.50415	-823.09729	1284.27661	-1312.74231	-822.06165	1144.90857	-1330.54065	-805.31140	1015.56787	-1302.90149	-743.15070	893.02234	-1337.81226	-788.07935	894.10754	-1344.09656	-765.11255	832.01727	-844.42389	-818.39911	1487.85791	-757.53290	-848.23651	1298.54309	-741.41669	-831.26166	1151.96228	-724.89551	-794.58295	1035.84961	-749.04694	-738.75073	913.09076	-714.80353	-784.07465	905.55865	-715.49048	-741.59198	846.42511	-1158.07886	-702.53998	992.98889	-900.30688	-720.91052	966.21136	-1089.86487	-921.66431	1026.55396	-976.27545	-933.39160	1018.56561	-1219.77588	-744.23828	682.94623	-1191.84338	-765.44153	478.29453	-1194.29517	-812.08673	287.79437	-1156.62085	-799.87067	65.35274	-1106.94153	-836.63318	36.95881	-1163.37085	-641.66339	31.34544	-822.53833	-783.04443	662.67499	-825.60773	-761.55933	466.67981	-832.20905	-904.61298	353.35071	-873.89728	-1038.13257	218.24536	-940.79083	-1084.35547	192.52158	-830.85175	-981.60785	72.53458	-1016.55994	-816.97180	1797.84338	-3360.18311	2845.20557	1033.73267			 
30	0.290	-1094.59180	-697.26892	1733.21814	-949.87610	-712.18787	1720.84558	-1113.29553	-821.99921	1653.46436	-973.67505	-850.80957	1639.19397	-1035.26575	-887.67255	1522.44507	-1030.24939	-946.09125	1244.99634	-1041.94971	-750.53674	1447.50635	-1028.55676	-702.43695	1276.92310	-969.44092	-950.23926	1348.80188	-1214.57996	-809.57245	1488.02026	-1300.22400	-812.01941	1285.68762	-1314.95081	-809.07312	1145.99817	-1332.37012	-789.97180	1016.85950	-1303.79773	-726.04523	895.51776	-1339.20227	-770.57898	895.67804	-1345.26807	-746.15076	833.90106	-846.57953	-810.81531	1488.54492	-759.70392	-842.13214	1299.51331	-743.34625	-825.91260	1152.86963	-726.55371	-790.27930	1036.34436	-750.44910	-735.47125	913.43103	-716.02692	-781.03595	906.30267	-716.43805	-738.76117	846.85803	-1160.47473	-695.23926	993.18567	-902.25385	-713.30109	967.73828	-1091.82227	-914.27722	1027.08191	-978.41656	-925.80194	1019.46429	-1221.15845	-739.68628	682.53400	-1192.78894	-763.26312	478.15610	-1194.36157	-811.25067	287.82596	-1156.54260	-799.91022	65.36154	-1106.71875	-836.59741	36.94286	-1163.46521	-641.80292	31.14952	-823.97668	-769.45020	664.31360	-827.88593	-744.78009	468.82721	-835.27643	-886.28436	353.71957	-876.67017	-1017.00922	215.85191	-943.37933	-1062.75562	187.94177	-830.92682	-956.75311	72.97565	-1018.64209	-809.04602	1798.72437	-3360.21729	2845.10791	1033.73303			 
31	0.300	-1094.16516	-687.06238	1733.58936	-951.66791	-704.42438	1721.60767	-1115.53442	-814.13702	1654.26013	-975.51978	-842.81946	1639.84790	-1037.45544	-879.53424	1523.12939	-1032.88806	-938.03149	1245.76514	-1043.78455	-742.36548	1448.10608	-1030.59045	-694.37219	1277.42444	-972.08801	-942.40765	1349.44507	-1216.48889	-800.58740	1489.02930	-1302.28784	-800.97961	1286.86450	-1317.23975	-796.03119	1147.15979	-1334.24939	-774.63269	1018.30206	-1304.88196	-708.69769	898.29327	-1340.50330	-753.08502	897.46918	-1346.73914	-727.12335	836.59436	-848.63678	-803.18231	1489.19543	-761.74255	-835.26831	1300.38745	-745.16595	-821.09296	1153.90540	-727.91711	-786.04865	1037.07935	-751.23425	-732.05475	913.63599	-717.26404	-777.57294	906.86444	-717.33765	-735.90985	847.29199	-1162.84351	-688.09015	993.58667	-904.30438	-705.65112	969.39917	-1093.55054	-906.92499	1027.47827	-980.30133	-918.05804	1020.16919	-1222.44312	-735.33777	682.03857	-1193.55042	-760.92633	478.03433	-1194.51501	-810.43030	288.02338	-1156.42981	-799.88129	65.39778	-1106.62329	-836.62439	37.02493	-1163.54724	-641.80780	31.12838	-825.33429	-755.90118	665.87158	-830.20746	-728.33380	470.97714	-838.13312	-867.70349	353.47964	-879.02173	-995.63477	212.65843	-945.39752	-1040.29517	182.28929	-831.51776	-930.83899	72.77749	-1020.46417	-801.26447	1799.38110	-3360.24951	2845.15552	1033.83691			 
32	0.310	-1095.73987	-679.13110	1734.24805	-953.39648	-696.47351	1722.13989	-1116.62634	-805.80133	1654.41541	-977.49347	-834.96790	1640.57458	-1039.79419	-871.14008	1523.54651	-1035.43872	-930.05713	1246.48792	-1045.56091	-734.14124	1448.70227	-1032.46667	-686.44373	1277.89001	-974.69171	-934.49457	1350.02673	-1218.30713	-791.64087	1489.96301	-1303.63831	-790.15839	1287.81213	-1319.31946	-783.19470	1148.48877	-1336.07397	-759.23969	1019.83319	-1305.61975	-691.55121	901.13531	-1341.66980	-735.54083	899.35828	-1347.40991	-708.35992	839.13611	-850.71454	-795.58191	1489.72913	-763.80371	-829.35181	1301.45605	-747.02844	-815.65112	1154.57568	-729.38086	-781.63879	1037.69800	-752.11786	-728.54510	913.84479	-718.40564	-774.57965	907.49365	-718.14716	-733.81177	847.77527	-1164.76501	-681.60681	993.79913	-906.59796	-698.18341	971.06250	-1095.10181	-899.61938	1027.79138	-981.87854	-910.39252	1020.82104	-1223.55042	-731.49432	681.69379	-1194.25793	-758.35590	477.84796	-1194.86523	-809.49731	288.35474	-1156.44751	-799.92432	65.70461	-1106.48376	-836.67004	37.12730	-1163.64087	-641.81293	31.11094	-826.69342	-742.75391	667.46625	-832.68201	-712.20837	472.97314	-840.80829	-849.03632	352.68805	-881.00043	-972.61395	208.15883	-947.14917	-1017.68268	175.86108	-832.30859	-903.29071	71.71014	-1022.24347	-793.30249	1799.91064	-3357.30542	2845.58374	1033.97986			 
33	0.320	-1097.26892	-671.05774	1734.85181	-955.08716	-688.46619	1722.52441	-1118.44055	-797.74152	1655.19446	-978.89221	-826.84113	1640.78137	-1041.77612	-863.20105	1524.06506	-1037.87537	-922.12085	1247.10364	-1047.24304	-725.91632	1449.17798	-1034.29749	-678.50574	1278.26147	-977.18646	-926.56232	1350.31372	-1220.01648	-782.86530	1490.92041	-1305.99988	-779.41901	1289.18701	-1321.52917	-770.27325	1149.64087	-1337.63525	-743.94080	1021.29749	-1306.25305	-674.36334	903.72919	-1342.77551	-717.97070	901.35516	-1348.16064	-689.45642	841.60345	-852.68011	-788.05750	1490.14758	-765.73187	-822.48065	1301.92285	-748.64246	-810.41888	1155.49353	-730.85687	-777.55664	1038.27087	-753.13037	-725.14355	913.87561	-719.52893	-771.24817	908.04315	-718.99524	-730.63367	848.10767	-1166.90955	-674.78674	994.37885	-909.09204	-690.60864	972.55957	-1096.49146	-892.32404	1028.01343	-983.07361	-902.64252	1021.48572	-1224.38745	-727.42438	681.20642	-1194.81812	-755.47528	477.60007	-1195.10144	-807.95959	288.44879	-1156.13342	-799.78302	65.47133	-1106.40283	-836.71625	37.31495	-1164.01978	-642.09833	31.10676	-828.20264	-729.86322	669.01575	-834.99237	-696.14648	474.78268	-843.17230	-830.01068	351.25571	-882.77710	-949.62024	203.12967	-948.50232	-994.23541	169.16946	-833.22430	-875.24554	70.16426	-1023.72998	-785.34338	1800.26758	-3357.54443	2845.92358	1033.76636			 
34	0.330	-1100.99292	-665.39160	1735.80383	-956.64343	-680.56384	1722.82092	-1119.85925	-789.58807	1655.56104	-980.74902	-818.86072	1641.31177	-1043.87378	-854.85229	1524.39038	-1040.22534	-914.19196	1247.64966	-1048.90796	-717.74371	1449.65674	-1036.09058	-670.53503	1278.59583	-979.67493	-918.61310	1350.91138	-1221.71228	-774.11298	1491.88672	-1308.19714	-768.74213	1290.41980	-1323.61646	-757.53448	1150.88916	-1339.13892	-728.73645	1022.97601	-1307.24414	-656.62268	907.11780	-1343.69446	-700.40558	903.46289	-1348.96338	-670.63116	844.45410	-854.42072	-780.68652	1490.56982	-767.53101	-816.41699	1302.91919	-750.28979	-805.12457	1156.21558	-732.02789	-773.38635	1038.84448	-753.99207	-721.27979	914.13324	-720.60950	-767.78644	908.48315	-719.66083	-727.20276	848.26605	-1168.91553	-668.12866	994.75653	-911.68738	-683.00653	973.83411	-1097.60889	-884.92743	1028.15942	-984.13025	-894.90198	1022.08276	-1224.90271	-723.20239	680.71075	-1195.21094	-752.26422	477.32108	-1195.22705	-805.98383	288.37619	-1155.98169	-799.64838	65.52267	-1106.24829	-836.74945	37.43882	-1163.91052	-642.04425	30.95178	-829.55957	-717.38074	670.69592	-837.49451	-680.58929	476.93277	-845.14124	-810.70190	349.26755	-884.19446	-925.81671	197.37186	-949.57312	-969.58685	161.29201	-834.19128	-846.14429	68.11797	-1025.05322	-777.34973	1800.81091	-3357.40112	2845.83691	1033.94348			 
